<?xml version="1.0" ?>
<svg data-name="Livello 1" id="Livello_1" viewBox="0 0 151.57 151.57" xmlns="http://www.w3.org/2000/svg">
	<title/>
	<circle cx="1440.41" cy="466.77" r="72.28" style="fill:transparent;stroke:#f2f2f2;stroke-linecap:round;stroke-linejoin:round;stroke-width:7px" transform="translate(-1272.8 764.25) rotate(-45)"/>
	<path d="M1492.82,473.94A14,14,0,0,0,1477.1,460a18.49,18.49,0,0,0-15.93-9.09l-0.73,0a24.9,24.9,0,0,0-40.93-4.18,20.89,20.89,0,1,0-5.86,40.94l46.45,0.2c0.36,0,.72,0,1.08,0l1,0,16.24,0.07h2.43l-0.09-.14A14,14,0,0,0,1492.82,473.94Z" style="fill:#000000;stroke:#f2f2f2;stroke-linecap:round;stroke-linejoin:round;stroke-width:5px" transform="translate(-1364.63 -390.99)"/>
</svg>