<svg width="550" height="550" xmlns="http://www.w3.org/2000/svg">

 <g>
  <title>background</title>
  <rect fill="none" id="canvas_background" height="552" width="552" y="-1" x="-1"/>
 </g>
 <g>
  <title>Layer 1</title>
  <rect stroke="null" id="svg_11" height="561.000014" width="560.999984" y="-4" x="-4.5" stroke-opacity="null" stroke-width="null" fill="#59616a"/>
  <g id="svg_1" fill="#59616A">
   <path id="svg_2" fill="#59616A"/>
   <g id="svg_3">
    <path id="svg_4" fill="#507C5C" d="m490.702,531l-269.099,0c-8.063,0 -14.599,-6.537 -14.599,-14.599c0,-8.062 6.536,-14.599 14.599,-14.599l269.099,0c6.345,0 11.507,-5.162 11.507,-11.507l0,-345.706c0,-6.345 -5.162,-11.507 -11.507,-11.507l-336.52,0c-6.346,0 -11.508,5.162 -11.508,11.507c0,8.062 -6.536,14.599 -14.599,14.599s-14.599,-6.537 -14.599,-14.599c0,-22.445 18.26,-40.705 40.706,-40.705l336.52,0c22.446,0 40.705,18.26 40.705,40.705l0,345.706c0,22.445 -18.259,40.705 -40.705,40.705z"/>
    <path id="svg_5" fill="#CFF09E" d="m154.182,118.483l277.742,0l0,-58.778c0,-14.418 -11.688,-26.106 -26.106,-26.106l-336.52,0c-14.418,0 -26.106,11.688 -26.106,26.106l0,345.706c0,14.418 11.688,26.106 26.106,26.106l58.778,0l0,-286.926c0,-14.418 11.688,-26.108 26.106,-26.108z"/>
   </g>
   <g id="svg_6">
    <path id="svg_7" fill="#507C5C" d="m128.076,446.116l-58.778,0c-22.446,0 -40.705,-18.26 -40.705,-40.706l0,-345.705c0,-22.445 18.259,-40.705 40.705,-40.705l336.52,0c22.446,0 40.705,18.26 40.705,40.705l0,58.78c0,8.062 -6.536,14.599 -14.599,14.599l-277.742,0c-6.345,0 -11.507,5.162 -11.507,11.507l0,286.927c0,8.062 -6.536,14.598 -14.599,14.598zm-58.778,-397.918c-6.345,0 -11.507,5.162 -11.507,11.507l0,345.706c0,6.346 5.162,11.508 11.507,11.508l44.179,0l0,-272.33c0,-22.445 18.26,-40.705 40.705,-40.705l263.144,0l0,-44.179c0,-6.345 -5.162,-11.507 -11.507,-11.507l-336.521,0z"/>
    <path id="svg_8" fill="#507C5C" d="m234.799,419.667c-3.736,0 -7.473,-1.426 -10.323,-4.276c-5.701,-5.701 -5.702,-14.945 0,-20.647l177.743,-177.744c5.701,-5.699 14.945,-5.699 20.647,0c5.701,5.701 5.701,14.945 0,20.647l-177.742,177.744c-2.853,2.851 -6.589,4.276 -10.325,4.276z"/>
    <path id="svg_9" fill="#507C5C" d="m414.941,322.04c-0.718,0 -1.444,-0.053 -2.175,-0.161c-7.974,-1.191 -13.473,-8.622 -12.282,-16.596l11.573,-77.474l-77.474,11.576c-7.975,1.18 -15.405,-4.308 -16.596,-12.282c-1.191,-7.974 4.307,-15.405 12.282,-16.596l96.984,-14.49c4.571,-0.676 9.208,0.844 12.479,4.115c3.273,3.273 4.8,7.902 4.115,12.481l-14.488,96.986c-1.081,7.241 -7.31,12.441 -14.418,12.441z"/>
    <path id="svg_10" fill="#507C5C" d="m215.473,438.991c-3.842,0 -7.565,-1.518 -10.323,-4.276c-3.272,-3.273 -4.799,-7.902 -4.115,-12.481l14.488,-96.986c1.191,-7.975 8.625,-13.469 16.596,-12.282c7.974,1.191 13.473,8.622 12.282,16.596l-11.574,77.474l77.474,-11.574c7.97,-1.184 15.403,4.308 16.596,12.282c1.191,7.974 -4.308,15.405 -12.282,16.596l-96.984,14.488c-0.72,0.109 -1.441,0.163 -2.158,0.163z"/>
   </g>
  </g>
 </g>
</svg>